<svg width="8" height="8" viewBox="0 0 8 8" fill="none" xmlns="http://www.w3.org/2000/svg">
<path d="M7.72698 1.24529C7.99547 0.976806 7.99547 0.541505 7.72698 0.273019C7.4585 0.00453389 7.0232 0.00453389 6.75471 0.273019L3.99994 3.02779L1.24518 0.27302C0.976693 0.00453451 0.541391 0.00453421 0.272906 0.27302C0.00442037 0.541505 0.00442056 0.976806 0.272906 1.24529L3.02767 4.00006L0.272897 6.75483C0.004412 7.02332 0.00441172 7.45862 0.272897 7.7271C0.541383 7.99559 0.976684 7.99559 1.24517 7.7271L3.99994 4.97233L6.75472 7.7271C7.0232 7.99559 7.4585 7.99559 7.72699 7.7271C7.99548 7.45862 7.99548 7.02332 7.72699 6.75483L4.97222 4.00006L7.72698 1.24529Z" fill="black"/>
</svg>
