<svg width="16" height="16" viewBox="0 0 16 16" fill="none" xmlns="http://www.w3.org/2000/svg">
<path d="M7.99998 0.208252C3.69676 0.208252 0.208313 3.6967 0.208313 7.99992C0.208313 12.3031 3.69676 15.7916 7.99998 15.7916C12.0495 15.7916 15.377 12.7027 15.7558 8.75226C15.7734 8.56841 15.6789 8.39193 15.5162 8.30463C15.3534 8.21732 15.1541 8.23624 15.0107 8.35262C14.2227 8.99207 13.2192 9.37492 12.125 9.37492C9.59367 9.37492 7.54165 7.32289 7.54165 4.79158C7.54165 3.28816 8.26503 1.9538 9.38468 1.11728C9.53272 1.00667 9.59986 0.817986 9.55496 0.63873C9.51005 0.459475 9.36189 0.324721 9.17919 0.296971C8.79438 0.238522 8.40057 0.208252 7.99998 0.208252Z" fill="#555555"/>
</svg>
