<svg  viewBox="0 0 20 20" fill="none" xmlns="http://www.w3.org/2000/svg">
<path d="M20 10C20 4.47715 15.5228 0 10 0C4.47715 0 0 4.47715 0 10C0 15.5228 4.47715 20 10 20C15.5228 20 20 15.5228 20 10Z" fill="white"/>
<path fill-rule="evenodd" clip-rule="evenodd" d="M14.8937 10.1136C14.8937 9.75909 14.8619 9.41819 14.8028 9.09091H10.0937V11.025H12.7846C12.6687 11.65 12.3164 12.1796 11.7869 12.5341V13.7886H13.4028C14.3482 12.9182 14.8937 11.6364 14.8937 10.1136Z" fill="#4285F4"/>
<path fill-rule="evenodd" clip-rule="evenodd" d="M10.0935 15C11.4435 15 12.5753 14.5523 13.4026 13.7886L11.7867 12.5341C11.339 12.8341 10.7662 13.0113 10.0935 13.0113C8.79122 13.0113 7.68895 12.1318 7.29576 10.95H5.62531V12.2454C6.44803 13.8795 8.13895 15 10.0935 15Z" fill="#34A853"/>
<path fill-rule="evenodd" clip-rule="evenodd" d="M7.29597 10.95C7.19597 10.65 7.13915 10.3295 7.13915 9.99998C7.13915 9.67043 7.19597 9.34997 7.29597 9.04997V7.75452H5.62551C5.28687 8.42952 5.09369 9.19316 5.09369 9.99998C5.09369 10.8068 5.28687 11.5704 5.62551 12.2454L7.29597 10.95Z" fill="#FBBC05"/>
<path fill-rule="evenodd" clip-rule="evenodd" d="M10.0935 6.98864C10.8276 6.98864 11.4867 7.24091 12.0049 7.73637L13.439 6.30228C12.573 5.49546 11.4412 5 10.0935 5C8.13895 5 6.44803 6.12046 5.62531 7.75455L7.29576 9.05001C7.68895 7.86819 8.79122 6.98864 10.0935 6.98864Z" fill="#EA4335"/>
</svg>
