<svg width="18" height="12" viewBox="0 0 18 12" fill="none" xmlns="http://www.w3.org/2000/svg">
<path d="M9.00008 3.93758C7.86099 3.93758 6.93758 4.86099 6.93758 6.00008C6.93758 7.13917 7.86099 8.06258 9.00008 8.06258C10.1392 8.06258 11.0626 7.13917 11.0626 6.00008C11.0626 4.86099 10.1392 3.93758 9.00008 3.93758Z" fill="black"/>
<path fill-rule="evenodd" clip-rule="evenodd" d="M9.00008 0.041748C6.60046 0.041748 4.44242 1.00552 2.8874 2.19899C2.10887 2.7965 1.47006 3.46012 1.02186 4.10596C0.582204 4.73949 0.291748 5.40565 0.291748 6.00008C0.291748 6.59451 0.582204 7.26067 1.02186 7.89421C1.47006 8.54005 2.10887 9.20366 2.8874 9.80117C4.44242 10.9946 6.60046 11.9584 9.00008 11.9584C11.3997 11.9584 13.5577 10.9946 15.1128 9.80117C15.8913 9.20366 16.5301 8.54005 16.9783 7.89421C17.418 7.26067 17.7084 6.59451 17.7084 6.00008C17.7084 5.40565 17.418 4.73949 16.9783 4.10596C16.5301 3.46012 15.8913 2.7965 15.1128 2.19899C13.5577 1.00552 11.3997 0.041748 9.00008 0.041748ZM5.56258 6.00008C5.56258 4.1016 7.1016 2.56258 9.00008 2.56258C10.8986 2.56258 12.4376 4.1016 12.4376 6.00008C12.4376 7.89856 10.8986 9.43758 9.00008 9.43758C7.1016 9.43758 5.56258 7.89856 5.56258 6.00008Z" fill="black"/>
</svg>
