<svg width="18" height="18" viewBox="0 0 18 18" fill="none" xmlns="http://www.w3.org/2000/svg">
<path fill-rule="evenodd" clip-rule="evenodd" d="M11.3851 12.4458C8.73482 14.5685 4.85538 14.4014 2.3986 11.9446C-0.23744 9.30856 -0.23744 5.0347 2.3986 2.39866C5.03464 -0.237379 9.3085 -0.237379 11.9445 2.39866C14.4013 4.85544 14.5684 8.73487 12.4457 11.3851L17.6014 16.5408C17.8943 16.8337 17.8943 17.3085 17.6014 17.6014C17.3085 17.8943 16.8336 17.8943 16.5407 17.6014L11.3851 12.4458ZM3.45926 10.8839C1.40901 8.83369 1.40901 5.50957 3.45926 3.45932C5.50951 1.40907 8.83363 1.40907 10.8839 3.45932C12.9326 5.50807 12.9341 8.82881 10.8884 10.8794C10.8869 10.8809 10.8854 10.8824 10.8839 10.8839C10.8824 10.8854 10.8809 10.8869 10.8794 10.8884C8.82876 12.9342 5.50801 12.9327 3.45926 10.8839Z" fill="white"/>
</svg>
