<svg width="18" height="18" viewBox="0 0 18 18" fill="none" xmlns="http://www.w3.org/2000/svg">
<path fill-rule="evenodd" clip-rule="evenodd" d="M16.8195 2.15282C17.088 1.88434 17.088 1.44904 16.8195 1.18055C16.5511 0.912066 16.1158 0.912066 15.8473 1.18055L1.18061 15.8472C0.912127 16.1157 0.912127 16.551 1.18061 16.8195C1.4491 17.088 1.8844 17.088 2.15288 16.8195L4.93498 14.0374C6.14298 14.5946 7.52595 14.9584 9.00008 14.9584C11.3997 14.9584 13.5577 13.9946 15.1128 12.8011C15.8913 12.2036 16.5301 11.54 16.9783 10.8941C17.418 10.2606 17.7084 9.59445 17.7084 9.00002C17.7084 8.40559 17.418 7.73943 16.9783 7.10589C16.5301 6.46006 15.8913 5.79644 15.1128 5.19893C14.8647 5.00855 14.6013 4.82402 14.3241 4.64832L16.8195 2.15282ZM11.8681 7.10431L10.8616 8.1108C10.9904 8.38005 11.0626 8.68161 11.0626 9.00002C11.0626 10.1391 10.1392 11.0625 9.00008 11.0625C8.68167 11.0625 8.38011 10.9904 8.11086 10.8615L7.10438 11.868C7.6478 12.2279 8.29946 12.4375 9.00008 12.4375C10.8986 12.4375 12.4376 10.8985 12.4376 9.00002C12.4376 8.2994 12.228 7.64774 11.8681 7.10431Z" fill="black"/>
<path d="M9.60228 5.61509C9.68611 5.6299 9.7727 5.60514 9.8329 5.54494L11.5878 3.79009C11.7201 3.65773 11.6652 3.43288 11.4847 3.38321C10.6992 3.167 9.86535 3.04169 9.00008 3.04169C6.60046 3.04169 4.44242 4.00546 2.8874 5.19893C2.10887 5.79644 1.47006 6.46006 1.02186 7.10589C0.582204 7.73943 0.291748 8.40559 0.291748 9.00002C0.291748 9.59445 0.582204 10.2606 1.02186 10.8941C1.40149 11.4412 1.91785 12.0009 2.54004 12.5225C2.63774 12.6044 2.78154 12.5963 2.87169 12.5061L5.545 9.83283C5.6052 9.77263 5.62997 9.68605 5.61515 9.60221C5.5806 9.40669 5.56258 9.20546 5.56258 9.00002C5.56258 7.10154 7.1016 5.56252 9.00008 5.56252C9.20552 5.56252 9.40675 5.58054 9.60228 5.61509Z" fill="black"/>
</svg>
