<svg width="20" height="20" viewBox="0 0 20 20" fill="none" xmlns="http://www.w3.org/2000/svg">
<path d="M10 3.125C8.27411 3.125 6.875 4.52411 6.875 6.25C6.875 7.97589 8.27411 9.375 10 9.375C11.7259 9.375 13.125 7.97589 13.125 6.25C13.125 4.52411 11.7259 3.125 10 3.125Z" fill="black"/>
<path d="M6.66666 11.0417C4.94077 11.0417 3.54166 12.4408 3.54166 14.1667V15.1569C3.54166 15.7846 3.99657 16.3198 4.61606 16.4209C8.18175 17.0031 11.8182 17.0031 15.3839 16.4209C16.0034 16.3198 16.4583 15.7846 16.4583 15.1569V14.1667C16.4583 12.4408 15.0592 11.0417 13.3333 11.0417H13.0493C12.8955 11.0417 12.7428 11.066 12.5966 11.1137L11.8753 11.3492C10.6568 11.7471 9.34322 11.7471 8.12465 11.3492L7.40339 11.1137C7.25724 11.066 7.10447 11.0417 6.95072 11.0417H6.66666Z" fill="black"/>
</svg>
